<svg width="79" height="84" version="1.1" xmlns="http://www.w3.org/2000/svg" desc="Created with imagetracer.js version 1.2.6" ><path fill="rgb(0,0,0)" stroke="rgb(0,0,0)" stroke-width="1" opacity="0" d="M 0 0 L 79 0 L 79 84 L 0 84 L 0 0 Z M 53 5 L 41 9 L 36 9 L 36 11 L 35 9 L 33 6 L 14 6 L 11 9 L 11 76 L 14 78 L 33 78 L 35 76 L 36 17 L 51 77 L 55 80 L 75 75 L 77 72 L 60 8 Q 59 4 53 5 Z " /><path fill="rgb(0,0,0)" stroke="rgb(0,0,0)" stroke-width="1" opacity="0" d="M 14 9 L 31.5 9 L 32 9.5 L 32 75 L 14.5 75 L 14 74.5 L 14 9 Z " /><path fill="rgb(0,0,0)" stroke="rgb(0,0,0)" stroke-width="1" opacity="0" d="M 52.5 9 Q 58.8 6.8 57 12.5 L 73 70.5 L 71.5 72 L 55 76 L 40 21.5 L 39 13 L 52.5 9 Z " /><path fill="rgb(48,26,17)" stroke="rgb(48,26,17)" stroke-width="1" opacity="0.9882352941176471" d="M 52.5 5 Q 58.8 3.8 60 7.5 L 59.5 10 L 57.5 6 Q 44.6 6.6 36 11.5 L 37 20.5 L 50 69.5 L 52 76.5 L 54.5 79 L 75 74 L 76 70.5 L 60 11.5 L 61 11.5 L 77 71.5 L 74.5 75 L 54.5 80 L 51 76.5 L 35.5 17 L 35 75.5 L 32.5 78 L 13.5 78 L 11 75.5 L 11 8.5 L 13.5 6 L 32.5 6 L 35 8.5 L 35.5 11 L 36 9 L 40.5 9 L 52.5 5 Z M 14 7 L 12 9 L 12 76 L 14 77 L 33 77 L 34 76 L 34 9 L 33 7 L 14 7 Z " /><path fill="rgb(48,26,17)" stroke="rgb(48,26,17)" stroke-width="1" opacity="0.9882352941176471" d="M 52.5 8 L 57 8.5 L 45.5 11 L 45.5 10 L 52.5 8 Z " /><path fill="rgb(48,26,17)" stroke="rgb(48,26,17)" stroke-width="1" opacity="0.9882352941176471" d="M 57.5 10 L 74 72 L 55.5 77 L 54 75.5 L 51 63.5 L 52 63.5 L 55 76 L 71.5 72 L 73 70.5 L 62 32.5 L 57.5 10 Z " /><path fill="rgb(48,26,17)" stroke="rgb(48,26,17)" stroke-width="1" opacity="0.9882352941176471" d="M 41.5 11 L 44 11.5 L 39 13 L 43 31.5 L 42 31.5 L 38 17.5 L 38 12 L 41.5 11 Z " /><path fill="rgb(48,26,17)" stroke="rgb(48,26,17)" stroke-width="1" opacity="0.9882352941176471" d="M 43.5 33 L 47 46.5 L 46 46.5 L 43.5 33 Z " /><path fill="rgb(48,26,17)" stroke="rgb(48,26,17)" stroke-width="1" opacity="0.9882352941176471" d="M 47.5 48 L 48 50.5 L 47 50.5 L 47.5 48 Z " /><path fill="rgb(48,26,17)" stroke="rgb(48,26,17)" stroke-width="1" opacity="0.9882352941176471" d="M 48.5 52 L 50 57.5 L 49 57.5 L 48.5 52 Z " /><path fill="rgb(48,26,17)" stroke="rgb(48,26,17)" stroke-width="1" opacity="0.9882352941176471" d="M 50.5 59 L 51 61.5 L 50 61.5 L 50.5 59 Z " /><path fill="rgb(195,195,195)" stroke="rgb(195,195,195)" stroke-width="1" opacity="1" d="M 52.5 6 Q 57.8 4.8 59 7.5 L 76 71.5 L 75 74 L 54.5 79 L 52 76.5 L 50 69.5 L 37 20.5 L 36 11.5 L 37.5 10 L 52.5 6 Z M 53 8 L 38 12 L 38 18 L 50 59 L 52 70 L 56 77 L 74 72 L 57 10 Q 58 6 53 8 Z " /><path fill="rgb(195,195,195)" stroke="rgb(195,195,195)" stroke-width="1" opacity="1" d="M 13.5 7 L 32.5 7 L 34 8.5 L 34 75.5 L 32.5 77 L 13.5 77 L 12 75.5 L 12 8.5 L 13.5 7 Z M 14 9 L 14 75 L 15 75 L 32 75 L 32 10 L 32 9 L 14 9 Z " /></svg>